<svg fill="currentColor" version="1.0" xmlns="http://www.w3.org/2000/svg" width="682.667" height="682.667" viewBox="0 0 512 512"><path d="M201.5 83.5c-55.9 5.9-96.2 20.9-123.4 46.1l-7.4 6.8.6 12.6c.4 8.1 1.3 14.9 2.6 19.5 4.2 14.2 14.7 32.1 24.3 41.3l3.5 3.3 3.8-4.8c20.5-25.6 47-44.3 76-53.8 21.2-7 41-9.1 68.5-7.4 15.4.9 23.5.8 49-.6 17.7-1 35.8-1.5 43-1.2 37.4 1.7 63.7 18.6 90.1 57.9 3.3 4.8 6.1 8.8 6.4 8.8.2 0 2.2-2.6 4.3-5.8 11.8-17.3 18.2-37.9 18.2-58.5v-7.1l-6.2-5.8c-29.6-27.6-76.3-43.8-145.3-50.4-22.6-2.2-90.6-2.8-108-.9zm87.8 16.9c2.4 1.2 3.3 5.4 1.4 7.3-1.3 1.3-7.4 1.5-43.3 1.7-38.2.2-43.3.4-58.4 2.6-22.5 3.2-24.2 3.2-25.4-.3-1.6-4.4 1.2-6.2 12.9-8 5.5-.9 15-2.1 21-2.7 6.1-.5 12.6-1.2 14.5-1.4 6.5-.7 75.5 0 77.3.8zm-139.9 11.2c1.9 1.9 2.1 5.8.4 7.1-2 1.6-10.9 4.3-14 4.3-2.1 0-3.2-.7-4-2.6-1.7-3.8-.1-5.6 7.3-8.1 7.7-2.7 8.3-2.7 10.3-.7z"/><path d="M58.8 153.1c-13.4 20.5-19.5 54.5-15.4 85.5 2.3 17.2 6.8 34.5 10.8 41.1 7.6 12.5 28.4 28.6 52.5 40.4l12.1 5.9 3.9-2.2c11.9-6.7 27.1-16 36.3-22.1 11.7-7.8 32-22.7 33.8-25 1-1.2-.9-2.1-12.5-6.1-18.3-6.3-45-19.4-59.9-29.4-6.8-4.5-16.6-12.4-22.4-17.9-20.8-19.7-31.5-38.6-35.9-63.2-1.6-9.1-1.7-9.3-3.3-7zM470.7 157c-.3 1.4-1 6.1-1.7 10.5-3.8 25.1-19.6 51.6-43.5 72.7-17.5 15.5-48.5 34-71.8 42.8-4.8 1.9-8.7 3.8-8.7 4.3 0 1.9 15.6 15.9 23.5 21.2 9.7 6.4 16.1 9.7 26.6 13.5l8 3 7.7-2.6c11.2-3.8 30.6-13.3 39.8-19.4 11.4-7.7 21.6-18.4 25.8-27.3 9.8-20.8 14.7-60.9 10.1-83.2-2.8-13.8-8.8-29.3-13.8-36-1.5-2-1.5-2-2 .5zM282 256.1c-21.8 1.9-76 14.4-73.4 16.9 2.8 2.6 98.1 62 99.5 62 2.2 0 1.1 2.1 15.6-27.4 13.1-26.8 14-29.7 10.9-36.9-1.8-4.4-8.8-10.3-14.5-12.2-9.7-3.2-21-3.9-38.1-2.4zM195 288c-42.5 34.2-104.6 67-157 82.9-14 4.3-17 6.2-17 10.7 0 1.6 6.3 9.5 20.2 25.5l20.2 23.1 4.5-.4c6-.6 28.6-9.2 48.3-18.3 30.4-14 59.3-31.8 84.8-52.2 12.8-10.1 43.1-39.3 47.7-45.8l2.1-3.1-22-13.9c-12.2-7.7-22.6-14.1-23.2-14.2-.6-.2-4.5 2.4-8.6 5.7zM330.8 315.7c-8.1 17-8.5 18.2-9.2 26.8-.4 4.9-1 10.1-1.2 11.5-.5 2.2.6 3.4 9.8 10.1C383.3 403.5 433 429 456.4 429c5.2 0 7.7-2.9 22-24.9 12.2-18.7 13.3-21.1 12-24.6-1.3-3.2-31.4-22-46.1-28.6-9.4-4.3-16.7-7.1-39.7-15-19.8-6.9-32-12.3-40.5-18.2-5.5-3.6-18.8-14.6-21.5-17.6-1.1-1.1-2.2-2.1-2.6-2.1-.4 0-4.5 8-9.2 17.7zM251.6 323c-6.8 8.2-31.7 32.6-39.8 39-3.2 2.5-5.7 4.8-5.8 5.2 0 .8 19.2 8.9 29 12.2 4.1 1.3 12.1 3.4 17.7 4.5 31.9 6.5 51-2.6 56.8-27.1.8-3.5 1.5-7.5 1.5-9.1 0-2.5-.3-2.7-3.7-2.7-3.1 0-7.6-2.4-25.3-13.6-11.8-7.5-22.2-14-23.1-14.4-1.2-.7-2.9.7-7.3 6z"/></svg>
