<svg fill="currentColor" version="1.0" xmlns="http://www.w3.org/2000/svg" width="682.667" height="682.667" viewBox="0 0 512 512"><path d="M261.7 181.7c-.4.3-.7 5.1-.7 10.5v9.9l-13.7-7.1-13.8-7.2-20 8.9c-16.6 7.3-20.1 9.2-20.3 11.1-.3 2-.9 2.2-6.7 2.2-7.8 0-39.3-2.5-57.5-4.5-32.1-3.7-68.5-9.4-103.6-16.5-22.3-4.5-23.9-4.6-24.8-2.4-.3.9-.6 11.9-.6 24.5C0 233.9 0 234 2.3 235c1.2.5 26.5 4.6 56.2 9 29.7 4.4 54.5 8.2 55 8.4.6.2-.1.8-1.5 1.4-11.6 4.6-95.8 42.6-96.9 43.6-.7.8-1 2.2-.7 3.2.4 1.1 8.5 8.2 18.1 15.9 14.9 12 17.9 14 20.7 13.9 1.9-.1 18.8-7.2 39.8-16.6 91.3-41.2 102-45.9 103.9-45.3 1 .3 9.5 3.9 18.7 8 9.3 4.1 17.3 7.5 18 7.5.6 0 6.7-2.9 13.5-6.5s12.7-6.5 13.1-6.5c.4 0 .9 4.3 1 9.6.2 7.8.6 9.9 2 10.7 1.3.9 5.4-1.4 21.8-12.3 11.1-7.3 20.4-13.9 20.8-14.6.5-.8 24.1 9.4 76.2 32.7 41.5 18.6 76.4 33.9 77.6 33.9 2.4 0 37-27.6 37.9-30.3.4-1 .2-2.4-.5-3.2-.6-.7-23.2-11.1-50.3-23.1-27.1-12-48.5-22-47.7-22.1.8-.2 25.6-3.9 55-8.3s54.5-8.5 55.8-9c2.2-1 2.2-1.1 2.2-23.9 0-12.6-.3-23.6-.6-24.5-.9-2.3-2.3-2.1-26.9 2.8-59.1 11.9-121.1 19.7-165.5 20.8l-12.5.3-.5-3.5c-.4-3-1.9-4.5-10.5-11.2-12.9-10-22.2-14.8-28.5-14.8-2.6 0-5 .3-5.3.7zm14.2 10.3c3 1.7 9.4 6 14.2 9.7l8.8 6.7-.2 26-.2 26.1-13 8.8c-7.1 4.9-13.8 9.3-14.7 9.8-1.7.9-1.8-1.5-1.8-44.6 0-25 .3-45.5.8-45.5.4 0 3.1 1.4 6.1 3zm-248.2 5.5C78 207.6 132.6 214.8 180 217.8l11.4.7-30.9 13.8c-18.2 8-32.2 13.7-34 13.7-1.6-.1-28.9-4-60.5-8.8l-57.5-8.7-.3-17.3c-.1-10.1.1-17.2.7-17.2.5 0 8.9 1.6 18.8 3.5zm476.1 13.7l-.3 17.3-57 8.7c-31.3 4.8-58.5 8.7-60.4 8.7-2.2.1-13.6-4.4-34.4-13.7l-30.9-13.7 17.8-1.2c46.7-3.2 99.8-10.4 144.9-19.7 8.8-1.8 17-3.4 18.3-3.5l2.2-.1-.2 17.2zm-256.2-7.1l13.4 7v23.8l-7.2-3.3c-19.6-9-47-22.7-46.6-23.1.9-1 24.3-11.3 25.7-11.4.7-.1 7.4 3.1 14.7 7zm-15.2 26.1l12.8 6.4-96.1 43.2L53 323l-13.7-11.2-13.6-11.2 2.9-1.3c1.6-.7 42.9-19 91.8-40.7l88.9-39.4 5.1 2.2c2.8 1.3 10.9 5.2 18 8.8zm165.1 31c48.6 21.6 88.2 39.5 87.9 40-.2.4-6.3 5.4-13.4 11.2L459.1 323l-63.8-28.6c-35.1-15.7-69-30.9-75.3-33.6-6.3-2.8-12.1-5.6-12.7-6.1-1-.7-1.3-5.4-1.3-17.4 0-14.6.2-16.4 1.6-15.9.8.3 41.3 18.2 89.9 39.8zM258 242.5c3 1.5 3 1.7 3 9.9 0 5.5-.4 8.7-1.2 9.3-.7.5-6.9 3.9-13.8 7.5l-12.5 6.5-13.8-6c-7.6-3.3-13.4-6.3-13-6.8.7-.6 47.3-21.8 48.1-21.9.2 0 1.6.7 3.2 1.5z"/></svg>
