<?xml version="1.0" standalone="no"?>
<!DOCTYPE svg PUBLIC "-//W3C//DTD SVG 20010904//EN"
 "http://www.w3.org/TR/2001/REC-SVG-20010904/DTD/svg10.dtd">
<svg version="1.0" xmlns="http://www.w3.org/2000/svg"
 width="512.000000pt" height="512.000000pt" viewBox="0 0 512.000000 512.000000"
 preserveAspectRatio="xMidYMid meet">

<g transform="translate(0.000000,512.000000) scale(0.100000,-0.100000)"
fill="#000000" stroke="none">
<path d="M2015 4285 c-559 -59 -962 -209 -1234 -461 l-74 -68 6 -126 c4 -81
13 -149 26 -195 42 -142 147 -321 243 -413 l35 -33 38 48 c205 256 470 443
760 538 212 70 410 91 685 74 154 -9 235 -8 490 6 177 10 358 15 430 12 374
-17 637 -186 901 -579 33 -48 61 -88 64 -88 2 0 22 26 43 58 118 173 182 379
182 585 l0 71 -62 58 c-296 276 -763 438 -1453 504 -226 22 -906 28 -1080 9z
m878 -169 c24 -12 33 -54 14 -73 -13 -13 -74 -15 -433 -17 -382 -2 -433 -4
-584 -26 -225 -32 -242 -32 -254 3 -16 44 12 62 129 80 55 9 150 21 210 27 61
5 126 12 145 14 65 7 755 0 773 -8z m-1399 -112 c19 -19 21 -58 4 -71 -20 -16
-109 -43 -140 -43 -21 0 -32 7 -40 26 -17 38 -1 56 73 81 77 27 83 27 103 7z"/>
<path d="M588 3589 c-134 -205 -195 -545 -154 -855 23 -172 68 -345 108 -411
76 -125 284 -286 525 -404 l121 -59 39 22 c119 67 271 160 363 221 117 78 320
227 338 250 10 12 -9 21 -125 61 -183 63 -450 194 -599 294 -68 45 -166 124
-224 179 -208 197 -315 386 -359 632 -16 91 -17 93 -33 70z"/>
<path d="M4707 3550 c-3 -14 -10 -61 -17 -105 -38 -251 -196 -516 -435 -727
-175 -155 -485 -340 -718 -428 -48 -19 -87 -38 -87 -43 0 -19 156 -159 235
-212 97 -64 161 -97 266 -135 l80 -30 77 26 c112 38 306 133 398 194 114 77
216 184 258 273 98 208 147 609 101 832 -28 138 -88 293 -138 360 -15 20 -15
20 -20 -5z"/>
<path d="M2820 2559 c-218 -19 -760 -144 -734 -169 28 -26 981 -620 995 -620
22 0 11 -21 156 274 131 268 140 297 109 369 -18 44 -88 103 -145 122 -97 32
-210 39 -381 24z"/>
<path d="M1950 2240 c-425 -342 -1046 -670 -1570 -829 -140 -43 -170 -62 -170
-107 0 -16 63 -95 202 -255 l202 -231 45 4 c60 6 286 92 483 183 304 140 593
318 848 522 128 101 431 393 477 458 l21 31 -220 139 c-122 77 -226 141 -232
142 -6 2 -45 -24 -86 -57z"/>
<path d="M3308 1963 c-81 -170 -85 -182 -92 -268 -4 -49 -10 -101 -12 -115 -5
-22 6 -34 98 -101 531 -394 1028 -649 1262 -649 52 0 77 29 220 249 122 187
133 211 120 246 -13 32 -314 220 -461 286 -94 43 -167 71 -397 150 -198 69
-320 123 -405 182 -55 36 -188 146 -215 176 -11 11 -22 21 -26 21 -4 0 -45
-80 -92 -177z"/>
<path d="M2516 1890 c-68 -82 -317 -326 -398 -390 -32 -25 -57 -48 -58 -52 0
-8 192 -89 290 -122 41 -13 121 -34 177 -45 319 -65 510 26 568 271 8 35 15
75 15 91 0 25 -3 27 -37 27 -31 0 -76 24 -253 136 -118 75 -222 140 -231 144
-12 7 -29 -7 -73 -60z"/>
</g>
</svg>
