<?xml version="1.0" standalone="no"?>
<!DOCTYPE svg PUBLIC "-//W3C//DTD SVG 20010904//EN"
 "http://www.w3.org/TR/2001/REC-SVG-20010904/DTD/svg10.dtd">
<svg version="1.0" xmlns="http://www.w3.org/2000/svg"
 width="512.000000pt" height="512.000000pt" viewBox="0 0 512.000000 512.000000"
 preserveAspectRatio="xMidYMid meet">

<g transform="translate(0.000000,512.000000) scale(0.100000,-0.100000)"
fill="#000000" stroke="none">
<path d="M2617 3303 c-4 -3 -7 -51 -7 -105 l0 -99 -137 71 -138 72 -200 -89
c-166 -73 -201 -92 -203 -111 -3 -20 -9 -22 -67 -22 -78 0 -393 25 -575 45
-321 37 -685 94 -1036 165 -223 45 -239 46 -248 24 -3 -9 -6 -119 -6 -245 0
-228 0 -229 23 -239 12 -5 265 -46 562 -90 297 -44 545 -82 550 -84 6 -2 -1
-8 -15 -14 -116 -46 -958 -426 -969 -436 -7 -8 -10 -22 -7 -32 4 -11 85 -82
181 -159 149 -120 179 -140 207 -139 19 1 188 72 398 166 913 412 1020 459
1039 453 10 -3 95 -39 187 -80 93 -41 173 -75 180 -75 6 0 67 29 135 65 68 36
127 65 131 65 4 0 9 -43 10 -96 2 -78 6 -99 20 -107 13 -9 54 14 218 123 111
73 204 139 208 146 5 8 241 -94 762 -327 415 -186 764 -339 776 -339 24 0 370
276 379 303 4 10 2 24 -5 32 -6 7 -232 111 -503 231 -271 120 -485 220 -477
221 8 2 256 39 550 83 294 44 545 85 558 90 22 10 22 11 22 239 0 126 -3 236
-6 245 -9 23 -23 21 -269 -28 -591 -119 -1211 -197 -1655 -208 l-125 -3 -5 35
c-4 30 -19 45 -105 112 -129 100 -222 148 -285 148 -26 0 -50 -3 -53 -7z m142
-103 c30 -17 94 -60 142 -97 l88 -67 -2 -260 -2 -261 -130 -88 c-71 -49 -138
-93 -147 -98 -17 -9 -18 15 -18 446 0 250 3 455 8 455 4 0 31 -14 61 -30z
m-2482 -55 c503 -101 1049 -173 1523 -203 l114 -7 -309 -138 c-182 -80 -322
-137 -340 -137 -16 1 -289 40 -605 88 l-575 87 -3 173 c-1 101 1 172 7 172 5
0 89 -16 188 -35z m4761 -137 l-3 -173 -570 -87 c-313 -48 -585 -87 -604 -87
-22 -1 -136 44 -344 137 l-309 137 178 12 c467 32 998 104 1449 197 88 18 170
34 183 35 l22 1 -2 -172z m-2562 71 l134 -70 0 -119 0 -119 -72 33 c-196 90
-470 227 -466 231 9 10 243 113 257 114 7 1 74 -31 147 -70z m-152 -261 l128
-64 -961 -432 -961 -432 -137 112 -136 112 29 13 c16 7 429 190 918 407 l889
394 51 -22 c28 -13 109 -52 180 -88z m1651 -310 c486 -216 882 -395 879 -400
-2 -4 -63 -54 -134 -112 l-129 -106 -638 286 c-351 157 -690 309 -753 336 -63
28 -121 56 -127 61 -10 7 -13 54 -13 174 0 146 2 164 16 159 8 -3 413 -182
899 -398z m-1395 187 c30 -15 30 -17 30 -99 0 -55 -4 -87 -12 -93 -7 -5 -69
-39 -138 -75 l-125 -65 -138 60 c-76 33 -134 63 -130 68 7 6 473 218 481 219
2 0 16 -7 32 -15z"/>
</g>
</svg>
